<svg width="20" height="22" viewBox="0 0 20 22" fill="none" xmlns="http://www.w3.org/2000/svg">
<path d="M17.071 0.11146H6.435C6.05037 0.111342 5.66948 0.179491 5.31412 0.312012C4.95875 0.444534 4.63587 0.638828 4.36395 0.883788C4.09202 1.12875 3.87637 1.41957 3.72933 1.73963C3.58229 2.05968 3.50674 2.4027 3.507 2.74907V3.26956H2.929C2.54437 3.26933 2.16346 3.33736 1.80804 3.46977C1.45262 3.60218 1.12967 3.79638 0.857652 4.04126C0.58563 4.28613 0.369871 4.57689 0.222709 4.8969C0.0755477 5.21691 -0.000130814 5.55991 6.83824e-07 5.90627V19.197C-0.00026228 19.5434 0.075319 19.8865 0.222422 20.2066C0.369525 20.5267 0.585263 20.8176 0.857299 21.0626C1.12933 21.3075 1.45233 21.5018 1.80781 21.6343C2.16329 21.7668 2.54429 21.8348 2.929 21.8346H13.564C13.9487 21.8348 14.3297 21.7668 14.6852 21.6343C15.0407 21.5018 15.3637 21.3075 15.6357 21.0626C15.9077 20.8176 16.1235 20.5267 16.2706 20.2066C16.4177 19.8865 16.4933 19.5434 16.493 19.197V18.6765H17.071C17.4557 18.6767 17.8367 18.6086 18.1922 18.4762C18.5477 18.3437 18.8707 18.1494 19.1427 17.9045C19.4147 17.6595 19.6305 17.3686 19.7776 17.0485C19.9247 16.7284 20.0003 16.3853 20 16.0389V2.74907C20.0039 2.40172 19.9308 2.05717 19.7849 1.73558C19.6391 1.414 19.4235 1.12184 19.1508 0.876217C18.878 0.630593 18.5536 0.43644 18.1965 0.305124C17.8393 0.173809 17.4567 0.107969 17.071 0.11146ZM11.021 4.5528L15.26 8.99504H13.179C12.8955 8.99551 12.6146 8.94557 12.3525 8.84808C12.0905 8.75059 11.8524 8.60746 11.6519 8.42691C11.4514 8.24637 11.2925 8.03195 11.1842 7.79596C11.0759 7.55997 11.0205 7.30706 11.021 7.05173V4.5528ZM19.267 16.0389C19.2675 16.2942 19.2121 16.5471 19.1038 16.7831C18.9955 17.0191 18.8366 17.2335 18.6361 17.414C18.4356 17.5946 18.1975 17.7377 17.9355 17.8352C17.6734 17.9327 17.3925 17.9826 17.109 17.9822H16.531V9.30752C16.5235 9.22268 16.4973 9.14004 16.454 9.06438L10.944 3.40824C10.8603 3.33869 10.7498 3.30122 10.636 3.30378H4.236V2.74907C4.24391 2.22932 4.47956 1.73345 4.89163 1.36946C5.3037 1.00547 5.85879 0.802857 6.436 0.805757H17.071C17.3545 0.805282 17.6354 0.855224 17.8975 0.952716C18.1595 1.05021 18.3976 1.19333 18.5981 1.37388C18.7986 1.55443 18.9575 1.76885 19.0658 2.00483C19.1741 2.24082 19.2295 2.49373 19.229 2.74907V16.0389H19.267Z" fill="white"/>
</svg>
