<svg width="24" height="24" viewBox="0 0 24 24" fill="none" xmlns="http://www.w3.org/2000/svg">
<g clip-path="url(#clip0)">
<rect width="24" height="23.411" fill="white"/>
<path fill-rule="evenodd" clip-rule="evenodd" d="M12 0C5.37423 0 0 5.37423 0 12C0 17.3006 3.46012 21.7914 8.17178 23.411C8.76074 23.4847 8.9816 23.1166 8.9816 22.8221C8.9816 22.5276 8.9816 21.7914 8.9816 20.7607C5.66871 21.4969 4.93252 19.1411 4.93252 19.1411C4.41718 17.7423 3.60736 17.3742 3.60736 17.3742C2.50307 16.638 3.68098 16.638 3.68098 16.638C4.8589 16.7117 5.52147 17.8896 5.52147 17.8896C6.62577 19.7301 8.31902 19.2147 8.9816 18.9202C9.05522 18.1104 9.42331 17.5951 9.71779 17.3006C7.06749 17.0061 4.26994 15.9755 4.26994 11.3374C4.26994 10.0123 4.71166 8.9816 5.52147 8.09816C5.44785 7.8773 5.00614 6.62577 5.66871 5.00614C5.66871 5.00614 6.69939 4.71166 8.9816 6.25767C9.93865 5.96319 10.9693 5.88957 12 5.88957C13.0307 5.88957 14.0614 6.03681 15.0184 6.25767C17.3006 4.71166 18.3313 5.00614 18.3313 5.00614C18.9939 6.62577 18.5522 7.8773 18.4785 8.17178C19.2147 8.9816 19.7301 10.0859 19.7301 11.411C19.7301 16.0491 16.9325 17.0061 14.2822 17.3006C14.7239 17.6687 15.092 18.4049 15.092 19.5092C15.092 21.1288 15.092 22.3804 15.092 22.8221C15.092 23.1166 15.3129 23.4847 15.9018 23.411C20.6871 21.7914 24.0736 17.3006 24.0736 12C24 5.37423 18.6258 0 12 0Z" fill="#D71549"/>
</g>
<defs>
<clipPath id="clip0">
<rect width="24" height="23.411" fill="white"/>
</clipPath>
</defs>
</svg>
