<svg xmlns="http://www.w3.org/2000/svg" width="29" height="29" viewBox="0 0 29 29">
  <path id="Path_616" data-name="Path 616" d="M14.5,0A14.5,14.5,0,1,0,29,14.5,14.5,14.5,0,0,0,14.5,0ZM10.286,21.92H6.755V11.291h3.532ZM8.521,9.845H8.5a1.84,1.84,0,1,1,.042-3.67,1.841,1.841,0,1,1-.023,3.671ZM23.02,21.92H19.489V16.236c0-1.428-.506-2.4-1.789-2.4a1.933,1.933,0,0,0-1.812,1.292,2.418,2.418,0,0,0-.116.861v5.933H12.241s.047-9.627,0-10.628h3.532v1.5a3.505,3.505,0,0,1,3.182-1.753c2.328,0,4.065,1.518,4.065,4.782Zm0,0" fill="#d71549"/>
</svg>
