<svg xmlns="http://www.w3.org/2000/svg" width="36.186" height="34.42" viewBox="0 0 36.186 34.42">
  <g id="iconfinder_meetup-logo_1508396" transform="translate(-365 -859.99)">
    <path id="Path_650" data-name="Path 650" d="M365,876.255V860h10.318c-.057.038-.113.077-.17.114a.787.787,0,0,0-.331,1.007.774.774,0,0,0,.9.445.762.762,0,0,0,.6-.867c-.026-.372-.294-.535-.568-.7h25.443v14.276c-.052-.076-.1-.153-.156-.226a.711.711,0,0,0-.851-.225.689.689,0,0,0,.35,1.317c.346-.015.5-.261.658-.512v19.789H382.457c.088-.054.175-.108.262-.163a.954.954,0,0,0-.717-1.741.924.924,0,0,0-.763.922,1.064,1.064,0,0,0,.723.982H365V876.68l.105.295a1.494,1.494,0,0,0,1.717.965A1.5,1.5,0,0,0,366.8,875a1.5,1.5,0,0,0-1.7.994C365.067,876.082,365.033,876.168,365,876.255Zm15.308-11.936a7.282,7.282,0,0,0-6.342,4.25,1.348,1.348,0,0,1-.96.772,5.02,5.02,0,0,0-3.278,6.968.838.838,0,0,1-.161,1.086,5.416,5.416,0,0,0,2.522,8.713.987.987,0,0,1,.844.959,5.833,5.833,0,0,0,8.958,3.966.615.615,0,0,1,.831.016,4.323,4.323,0,0,0,6.44-1.645,1.341,1.341,0,0,1,1.3-.9,6.4,6.4,0,0,0,4.974-9.35.54.54,0,0,1,.086-.753,3.664,3.664,0,0,0-1.271-5.919.486.486,0,0,1-.365-.542,6.61,6.61,0,0,0-.452-2.554,6.683,6.683,0,0,0-7.942-4.023,1.409,1.409,0,0,1-1.136-.136A7.617,7.617,0,0,0,380.308,864.319Zm11.448,25.307a1.581,1.581,0,0,0-1.582,1.565,1.612,1.612,0,0,0,1.579,1.58,1.6,1.6,0,0,0,1.575-1.577A1.566,1.566,0,0,0,391.756,889.626Zm-6.5-28.644a1.49,1.49,0,0,0-1.511,1.488,1.512,1.512,0,0,0,1.5,1.473,1.494,1.494,0,0,0,1.488-1.48A1.474,1.474,0,0,0,385.26,860.982Zm9.841,9.4a1.245,1.245,0,0,0,1.235,1.267,1.268,1.268,0,0,0,1.3-1.25,1.282,1.282,0,0,0-1.247-1.27A1.254,1.254,0,0,0,395.1,870.378Zm-22.828-4.8a1.062,1.062,0,0,0-1.131,1.084,1.11,1.11,0,0,0,1.107,1.164,1.136,1.136,0,0,0,1.145-1.139A1.1,1.1,0,0,0,372.274,865.58Zm27.277,13.475a.94.94,0,0,0-.941-.944,1,1,0,0,0-.936.971.949.949,0,0,0,.946.905A.894.894,0,0,0,399.55,879.056Zm-27.712,8.916a.711.711,0,0,0-.71-.679.692.692,0,0,0,.024,1.385A.713.713,0,0,0,371.838,887.972Z" transform="translate(0 -0.009)" fill="#fff"/>
    <path id="Path_651" data-name="Path 651" d="M365,1073.238c.033-.089.069-.177.1-.267a1.538,1.538,0,0,1,1.742-1.016,1.53,1.53,0,0,1,.023,3.005,1.528,1.528,0,0,1-1.757-.987c-.036-.1-.072-.2-.108-.3Q365,1073.455,365,1073.238Z" transform="translate(0 -196.995)" fill="#d71549"/>
    <path id="Path_652" data-name="Path 652" d="M595.507,1321.766a1.089,1.089,0,0,1-.74-1,.945.945,0,0,1,.78-.943.976.976,0,0,1,.733,1.781c-.089.056-.179.111-.268.167Z" transform="translate(-213.549 -427.357)" fill="#d71549"/>
    <path id="Path_653" data-name="Path 653" d="M503.93,859.991c.28.167.554.333.581.714a.781.781,0,0,1-.61.886.792.792,0,0,1-.918-.455.805.805,0,0,1,.339-1.03c.059-.037.116-.077.174-.116Z" transform="translate(-128.175 0)" fill="#d71549"/>
    <path id="Path_654" data-name="Path 654" d="M858.434,1055.647c-.161.257-.319.508-.673.523a.705.705,0,0,1-.358-1.347.726.726,0,0,1,.87.23c.056.075.107.154.16.231C858.434,1055.406,858.434,1055.526,858.434,1055.647Z" transform="translate(-457.249 -181.02)" fill="#d71549"/>
    <path id="Path_655" data-name="Path 655" d="M423.065,921.1a7.573,7.573,0,0,1,4.022.905,1.4,1.4,0,0,0,1.128.136,6.628,6.628,0,0,1,8.341,6.54.484.484,0,0,0,.363.539,3.645,3.645,0,0,1,1.263,5.886.538.538,0,0,0-.086.748,6.361,6.361,0,0,1-4.942,9.3,1.333,1.333,0,0,0-1.292.893,4.293,4.293,0,0,1-6.4,1.636.612.612,0,0,0-.826-.015,5.8,5.8,0,0,1-8.9-3.944.981.981,0,0,0-.839-.954,5.387,5.387,0,0,1-2.506-8.664.833.833,0,0,0,.16-1.08,4.993,4.993,0,0,1,3.257-6.93,1.34,1.34,0,0,0,.954-.768A7.236,7.236,0,0,1,423.065,921.1Zm8.309,20.526a10.586,10.586,0,0,0,1.093-.212.819.819,0,0,0,.686-.952c-.018-.441-.234-.7-.754-.83-.474-.116-.961-.177-1.437-.287a.8.8,0,0,1-.7-.765,2.865,2.865,0,0,1,.061-1.035c.455-1.283.968-2.546,1.45-3.818.383-1.011.808-2.011,1.116-3.046a2.107,2.107,0,0,0-1.009-2.406,2.689,2.689,0,0,0-2.467-.059.926.926,0,0,1-1.352-.251.857.857,0,0,0-.077-.072,1.781,1.781,0,0,0-2.37-.109c-.289.217-.549.473-.834.7a.916.916,0,0,1-1.1.105,8.356,8.356,0,0,0-1.232-.581,2.707,2.707,0,0,0-1.048-.194,2.921,2.921,0,0,0-2.72,2.037c-.775,2.183-1.487,4.389-2.192,6.6a9.5,9.5,0,0,0-.479,2.133,2.208,2.208,0,0,0,1.859,2.188,2.055,2.055,0,0,0,2.524-1.172c.254-.6.51-1.2.752-1.808.732-1.829,1.453-3.662,2.189-5.49a.8.8,0,0,1,.968-.548.773.773,0,0,1,.48,1c-.238.766-.531,1.515-.817,2.265-.364.959-.765,1.9-1.109,2.869a.939.939,0,0,0,.536,1.275,1.544,1.544,0,0,0,1.8-.475,3.92,3.92,0,0,0,.382-.627q1.549-3.023,3.094-6.048a3.136,3.136,0,0,1,.379-.586.655.655,0,0,1,.843-.207c.31.2.253.5.154.785a9.924,9.924,0,0,1-.392.935c-.669,1.426-1.349,2.847-2.015,4.274a3.011,3.011,0,0,0,1.815,4C430.1,941.407,430.785,941.505,431.374,941.63Z" transform="translate(-42.76 -56.696)" fill="#d71549"/>
    <path id="Path_656" data-name="Path 656" d="M722.818,1279.19a1.6,1.6,0,0,1,1.608,1.6,1.63,1.63,0,0,1-1.611,1.613,1.648,1.648,0,0,1-1.615-1.615A1.617,1.617,0,0,1,722.818,1279.19Z" transform="translate(-331.081 -389.683)" fill="#d71549"/>
    <path id="Path_657" data-name="Path 657" d="M631.834,873.89a1.507,1.507,0,0,1,1.511,1.514,1.528,1.528,0,0,1-1.522,1.514,1.547,1.547,0,0,1-1.535-1.506A1.524,1.524,0,0,1,631.834,873.89Z" transform="translate(-246.578 -12.895)" fill="#d71549"/>
    <path id="Path_658" data-name="Path 658" d="M790.92,990.419a1.282,1.282,0,0,1,1.318-1.28,1.311,1.311,0,0,1,1.275,1.3,1.3,1.3,0,0,1-1.329,1.278A1.274,1.274,0,0,1,790.92,990.419Z" transform="translate(-395.957 -120.037)" fill="#d71549"/>
    <path id="Path_659" data-name="Path 659" d="M453.074,938.96a1.121,1.121,0,0,1,1.146,1.134,1.162,1.162,0,0,1-1.171,1.164,1.135,1.135,0,0,1-1.132-1.191A1.084,1.084,0,0,1,453.074,938.96Z" transform="translate(-80.784 -73.398)" fill="#d71549"/>
    <path id="Path_660" data-name="Path 660" d="M829.227,1117.241a.913.913,0,0,1-.953.954.971.971,0,0,1-.967-.926,1.02,1.02,0,0,1,.957-.993A.961.961,0,0,1,829.227,1117.241Z" transform="translate(-429.714 -238.196)" fill="#d71549"/>
    <path id="Path_661" data-name="Path 661" d="M443.586,1246.874a.73.73,0,0,1-.7.721.708.708,0,0,1-.025-1.416A.728.728,0,0,1,443.586,1246.874Z" transform="translate(-71.591 -358.922)" fill="#d71549"/>
    <path id="Path_662" data-name="Path 662" d="M496.831,1025.185c-.606-.129-1.308-.23-1.981-.43a3.1,3.1,0,0,1-1.868-4.117c.686-1.468,1.386-2.93,2.075-4.4.147-.314.288-.634.4-.961.1-.289.16-.6-.158-.807a.675.675,0,0,0-.867.213,3.2,3.2,0,0,0-.39.6q-1.6,3.109-3.185,6.221a4.063,4.063,0,0,1-.393.645,1.59,1.59,0,0,1-1.854.489.965.965,0,0,1-.552-1.311c.354-.993.766-1.965,1.141-2.951.293-.772.595-1.543.841-2.33a.8.8,0,0,0-.495-1.026.827.827,0,0,0-1,.564c-.758,1.88-1.5,3.765-2.253,5.647-.249.623-.513,1.242-.774,1.86a2.115,2.115,0,0,1-2.6,1.2,2.27,2.27,0,0,1-1.914-2.251,9.726,9.726,0,0,1,.493-2.194c.726-2.27,1.459-4.539,2.257-6.784a3.007,3.007,0,0,1,2.8-2.1,2.757,2.757,0,0,1,1.078.2,8.567,8.567,0,0,1,1.269.6.943.943,0,0,0,1.135-.109c.293-.23.56-.494.858-.717a1.834,1.834,0,0,1,2.44.113.777.777,0,0,1,.079.074.954.954,0,0,0,1.392.259,2.77,2.77,0,0,1,2.539.061,2.166,2.166,0,0,1,1.039,2.474c-.317,1.064-.754,2.093-1.149,3.133-.5,1.31-1.024,2.608-1.493,3.927a2.961,2.961,0,0,0-.063,1.064.818.818,0,0,0,.72.786c.489.114.991.177,1.479.3.535.131.758.4.776.854a.843.843,0,0,1-.706.979A10.938,10.938,0,0,1,496.831,1025.185Z" transform="translate(-107.979 -140.081)" fill="#fff"/>
  </g>
</svg>
