<svg xmlns="http://www.w3.org/2000/svg" xmlns:xlink="http://www.w3.org/1999/xlink" viewBox="0 0 1254.38 710.85"><defs><style>.cls-1{fill:none;}.cls-2{clip-path:url(#clip-path);}</style><clipPath id="clip-path" transform="translate(265.29 238.57)"><path class="cls-1" d="M58.4,144.8V115H0V91.2l67-86H85.2V91h17.6v24H85.2v29.8ZM26.8,91H61.4V45.8ZM223.2,60.8a72.85,72.85,0,0,1-3.9,24.3,59.86,59.86,0,0,1-10.8,19.2,48.77,48.77,0,0,1-16.4,12.6,49.17,49.17,0,0,1-41.1,0,49,49,0,0,1-16.3-12.6,59.86,59.86,0,0,1-10.8-19.2A72.85,72.85,0,0,1,120,60.8a72.85,72.85,0,0,1,3.9-24.3,59.86,59.86,0,0,1,10.8-19.2A50.22,50.22,0,0,1,151,4.6a48.2,48.2,0,0,1,41.1,0,50,50,0,0,1,16.4,12.7,59.86,59.86,0,0,1,10.8,19.2A72.85,72.85,0,0,1,223.2,60.8Zm-27,0a56.6,56.6,0,0,0-1.8-14.7,37.11,37.11,0,0,0-5.1-11.5,24.11,24.11,0,0,0-7.8-7.4,19.47,19.47,0,0,0-9.9-2.6,19.86,19.86,0,0,0-10.1,2.6,24.11,24.11,0,0,0-7.8,7.4,37.11,37.11,0,0,0-5.1,11.5,56.6,56.6,0,0,0-1.8,14.7,55.44,55.44,0,0,0,1.8,14.6,37.26,37.26,0,0,0,5.1,11.4,24.11,24.11,0,0,0,7.8,7.4,19.86,19.86,0,0,0,10.1,2.6,19.47,19.47,0,0,0,9.9-2.6,24.11,24.11,0,0,0,7.8-7.4,37.26,37.26,0,0,0,5.1-11.4A55.44,55.44,0,0,0,196.2,60.8Zm99.2,84V115H237V91.2l67-86h18.2V91h17.6v24H322.2v29.8ZM263.8,91h34.6V45.8Z"/></clipPath></defs><g id="Layer_2" data-name="Layer 2"><g id="Layer_6" data-name="Layer 6"><g class="cls-2"><image width="6642" height="3764" transform="scale(0.19)" xlink:href="P:%5C_1%20Downloads%5CVolunteer%20Work%5CReturnship%5Cimages%5C815.jpg"/></g></g></g></svg>