<svg xmlns="http://www.w3.org/2000/svg" width="29" height="25.778" viewBox="0 0 29 25.778">
  <path id="Icon_awesome-lock-open" data-name="Icon awesome-lock-open" d="M21.322,0a7.7,7.7,0,0,0-7.628,7.728v3.549H2.417A2.417,2.417,0,0,0,0,13.694v9.667a2.417,2.417,0,0,0,2.417,2.417H20.139a2.417,2.417,0,0,0,2.417-2.417V13.694a2.417,2.417,0,0,0-2.417-2.417H17.722V7.7a3.625,3.625,0,1,1,7.25-.045v4.028a1.205,1.205,0,0,0,1.208,1.208h1.611A1.205,1.205,0,0,0,29,11.681V7.653A7.661,7.661,0,0,0,21.322,0Z" transform="translate(0 0)"/>
</svg>
