<svg width="20" height="16" viewBox="0 0 20 16" fill="#58bacc" xmlns="http://www.w3.org/2000/svg">
<path d="M19.5 6.5H17.5V4.5C17.4996 4.36751 17.4468 4.24054 17.3532 4.14685C17.2595 4.05316 17.1325 4.00037 17 4H16C15.8675 4.00037 15.7405 4.05316 15.6468 4.14685C15.5532 4.24054 15.5004 4.36751 15.5 4.5V6.5H13.5C13.3675 6.50037 13.2405 6.55316 13.1468 6.64685C13.0532 6.74054 13.0004 6.86751 13 7V8C13.0004 8.1325 13.0532 8.25946 13.1468 8.35315C13.2405 8.44684 13.3675 8.49964 13.5 8.5H15.5V10.5C15.5004 10.6325 15.5532 10.7595 15.6468 10.8532C15.7405 10.9468 15.8675 10.9996 16 11H17C17.1325 10.9996 17.2595 10.9468 17.3532 10.8532C17.4468 10.7595 17.4996 10.6325 17.5 10.5V8.5H19.5C19.6325 8.49964 19.7595 8.44684 19.8532 8.35315C19.9468 8.25946 19.9996 8.1325 20 8V7C19.9996 6.86751 19.9468 6.74054 19.8532 6.64685C19.7595 6.55316 19.6325 6.50037 19.5 6.5ZM7 8C7.79113 8 8.56448 7.76541 9.22228 7.32588C9.88008 6.88635 10.3928 6.26164 10.6955 5.53074C10.9983 4.79983 11.0775 3.99556 10.9231 3.21964C10.7688 2.44372 10.3878 1.73098 9.82843 1.17157C9.26902 0.612165 8.55629 0.231202 7.78036 0.0768607C7.00444 -0.0774802 6.20017 0.00173314 5.46927 0.304484C4.73836 0.607234 4.11365 1.11992 3.67412 1.77772C3.2346 2.43552 3 3.20888 3 4C3 5.06087 3.42143 6.07828 4.17157 6.82843C4.92172 7.57857 5.93913 8 7 8ZM9.8 9H9.27793C8.56359 9.32945 7.7863 9.50006 6.99966 9.50006C6.21301 9.50006 5.43572 9.32945 4.72138 9H4.2C3.0862 9.00037 2.01813 9.44298 1.23056 10.2306C0.442982 11.0181 0.000365599 12.0862 0 13.2L0 14.5C0.000182756 14.8978 0.158277 15.2792 0.439542 15.5605C0.720807 15.8417 1.10223 15.9998 1.5 16H12.5C12.8978 15.9998 13.2792 15.8417 13.5605 15.5605C13.8417 15.2792 13.9998 14.8978 14 14.5V13.2C13.9996 12.0862 13.557 11.0181 12.7694 10.2306C11.9819 9.44298 10.9138 9.00037 9.8 9Z" fill="#58BACC"/>
</svg>
