<svg width="112" height="112" viewBox="0 0 112 112" fill="none" xmlns="http://www.w3.org/2000/svg">
<path d="M81.704 31.248L44.8 68.152L24.696 48.104L16.8 56L44.8 84L89.6 39.2L81.704 31.248ZM56 0C46.375 0 37.3146 2.43229 29.4004 6.71533C21.0718 11.2226 14.0126 17.7795 8.90039 25.7084C3.2688 34.4427 0 44.842 0 56C0 67.158 3.2688 77.5573 8.90039 86.2916C14.0126 94.2205 21.0718 100.777 29.4004 105.285C37.3146 109.568 46.375 112 56 112C86.912 112 112 86.912 112 56C112 25.088 86.912 0 56 0ZM56 100.8C48.37 100.8 41.187 98.895 34.9004 95.5344C27.8952 91.7896 22.0031 86.2376 17.846 79.5C13.6314 72.6692 11.2 64.6198 11.2 56C11.2 47.3802 13.6314 39.3308 17.846 32.5C22.0031 25.7624 34.9004 16.4656 34.9004 16.4656C41.187 13.105 48.37 11.2 56 11.2C80.752 11.2 100.8 31.248 100.8 56C100.8 80.752 80.752 100.8 56 100.8Z" fill="black"/>
<path d="M81.704 31.248L44.8 68.152L24.696 48.104L16.8 56L44.8 84L89.6 39.2L81.704 31.248ZM56 0C46.375 0 37.3146 2.43229 29.4004 6.71533C21.0718 11.2226 14.0126 17.7795 8.90039 25.7084C3.2688 34.4427 0 44.842 0 56C0 67.158 3.2688 77.5573 8.90039 86.2916C14.0126 94.2205 21.0718 100.777 29.4004 105.285C37.3146 109.568 46.375 112 56 112C86.912 112 112 86.912 112 56C112 25.088 86.912 0 56 0ZM56 100.8C48.37 100.8 41.187 98.895 34.9004 95.5344C27.8952 91.7896 22.0031 86.2376 17.846 79.5C13.6314 72.6692 11.2 64.6198 11.2 56C11.2 47.3802 13.6314 39.3308 17.846 32.5C22.0031 25.7624 34.9004 16.4656 34.9004 16.4656C41.187 13.105 48.37 11.2 56 11.2C80.752 11.2 100.8 31.248 100.8 56C100.8 80.752 80.752 100.8 56 100.8Z" fill="black"/>
</svg>
