<svg width="48" height="48" viewBox="0 0 48 48" fill="none" xmlns="http://www.w3.org/2000/svg">
<path d="M0 0.000795922H42.6667C44.0575 -0.0244399 45.4007 0.551313 46.4008 1.60146C47.4009 2.65161 47.9762 4.09019 48 5.60089V42.3991C47.9762 43.9098 47.4009 45.3484 46.4008 46.3985C45.4007 47.4487 44.0575 48.0244 42.6667 47.9992H0V0.000795922Z" fill="#58BACC"/>
<path d="M36.0378 33.8872L31.049 28.9062C32.4382 27.0852 33.1826 24.8552 33.1653 22.5662C33.1741 21.1762 32.9064 19.7983 32.3777 18.5124C31.849 17.2265 31.0698 16.0583 30.0854 15.0754C29.1009 14.0925 27.9308 13.3145 26.6429 12.7866C25.355 12.2588 23.975 11.9914 22.5828 12.0002C21.1906 11.9914 19.8105 12.2588 18.5226 12.7866C17.2347 13.3145 16.0646 14.0925 15.0802 15.0754C14.0958 16.0583 13.3166 17.2265 12.7879 18.5124C12.2592 19.7983 11.9914 21.1762 12.0002 22.5662C11.9914 23.9562 12.2592 25.3341 12.7879 26.62C13.3166 27.9059 14.0958 29.0741 15.0802 30.057C16.0646 31.0399 17.2347 31.8179 18.5226 32.3458C19.8105 32.8736 21.1906 33.141 22.5828 33.1322C24.8754 33.1494 27.1088 32.4062 28.9327 31.0192L33.9215 36.0002L36.0378 33.8872ZM15.0239 22.5662C15.0142 21.5724 15.203 20.5866 15.5794 19.6666C15.9558 18.7465 16.5122 17.9107 17.2161 17.2079C17.92 16.5052 18.7571 15.9496 19.6786 15.5738C20.6001 15.198 21.5874 15.0095 22.5828 15.0192C23.5781 15.0095 24.5654 15.198 25.4869 15.5738C26.4084 15.9496 27.2456 16.5052 27.9495 17.2079C28.6533 17.9107 29.2097 18.7465 29.5861 19.6666C29.9625 20.5866 30.1514 21.5724 30.1416 22.5662C30.1514 23.56 29.9625 24.5458 29.5861 25.4658C29.2097 26.3859 28.6533 27.2217 27.9495 27.9245C27.2456 28.6272 26.4084 29.1828 25.4869 29.5586C24.5654 29.9344 23.5781 30.1229 22.5828 30.1132C21.5874 30.1229 20.6001 29.9344 19.6786 29.5586C18.7571 29.1828 17.92 28.6272 17.2161 27.9245C16.5122 27.2217 15.9558 26.3859 15.5794 25.4658C15.203 24.5458 15.0142 23.56 15.0239 22.5662Z" fill="#434447"/>
</svg>
