<svg xmlns="http://www.w3.org/2000/svg" width="28.999" height="28.999" viewBox="0 0 28.999 28.999">
  <path id="Path_637" data-name="Path 637" d="M365,863.415V861.6a1.058,1.058,0,0,0,.048-.186,13.649,13.649,0,0,1,1.657-5.711,14.319,14.319,0,0,1,10.273-7.467c.534-.1,1.077-.154,1.616-.228h1.812a1.07,1.07,0,0,0,.186.048,13.651,13.651,0,0,1,5.711,1.657,14.315,14.315,0,0,1,7.467,10.273c.106.552.154,1.115.229,1.673v1.7a1.91,1.91,0,0,0-.048.243,13.64,13.64,0,0,1-1.669,5.735A14.312,14.312,0,0,1,382,876.784c-.544.1-1.1.152-1.649.225h-1.7l-.615-.07a14.537,14.537,0,0,1-12.876-12.325C365.1,864.215,365.053,863.815,365,863.415Zm18.649-5.523h.01c0-.716,0-1.433,0-2.15a2.637,2.637,0,0,0-.061-.616,1.839,1.839,0,0,0-3.624.458c-.018,1.537-.01,3.074,0,4.61a1.843,1.843,0,0,0,2.523,1.7,1.7,1.7,0,0,0,1.147-1.574C383.677,859.515,383.649,858.7,383.649,857.892Zm-8.748.467v-.009c-.726,0-1.452,0-2.178,0a2.626,2.626,0,0,0-.589.054,1.84,1.84,0,0,0,.45,3.631c1.527.016,3.055.009,4.582,0a1.773,1.773,0,0,0,1.4-.633,1.748,1.748,0,0,0,.321-1.9,1.708,1.708,0,0,0-1.58-1.139C376.5,858.332,375.7,858.359,374.9,858.359Zm.45,8.758h-.01c0,.726,0,1.452,0,2.178a2.558,2.558,0,0,0,.057.589,1.842,1.842,0,0,0,3.63-.495c.01-1.5.021-3-.011-4.5a2.333,2.333,0,0,0-.291-1.041,1.781,1.781,0,0,0-2-.811,1.8,1.8,0,0,0-1.368,1.645C375.327,865.494,375.351,866.306,375.351,867.117Zm8.766-.458v.01c.716,0,1.433,0,2.149,0a2.663,2.663,0,0,0,.616-.06,1.839,1.839,0,0,0-.457-3.624c-1.537-.018-3.074-.01-4.61,0a1.843,1.843,0,0,0-1.7,2.523,1.7,1.7,0,0,0,1.574,1.147C382.494,866.686,383.306,866.658,384.116,866.658Zm-5.111-9.263c0-.694.051-1.384-.012-2.063a1.8,1.8,0,0,0-1.9-1.6,1.842,1.842,0,0,0-1.741,1.7,1.787,1.787,0,0,0,1.537,1.951A19.09,19.09,0,0,0,379.005,857.4Zm-4.606,5.62a21.386,21.386,0,0,0-2.168.015,1.8,1.8,0,0,0-1.5,1.952,1.847,1.847,0,0,0,1.816,1.682,1.815,1.815,0,0,0,1.848-1.637C374.432,864.362,374.4,863.691,374.4,863.016Zm10.21-1.005c.706,0,1.405.052,2.093-.012a1.791,1.791,0,0,0,1.575-1.9,1.84,1.84,0,0,0-1.751-1.746,1.8,1.8,0,0,0-1.9,1.567C384.554,860.612,384.609,861.312,384.609,862.011Zm-4.642,5.6c0,.606,0,1.18,0,1.753a2.554,2.554,0,0,0,.033.365,1.837,1.837,0,0,0,3.653-.243,1.81,1.81,0,0,0-1.615-1.866C381.365,867.573,380.685,867.612,379.967,867.612Z" transform="translate(-365 -848.01)" fill="#d71549"/>
</svg>
